<?xml version="1.0" encoding="UTF-8"?>
<!DOCTYPE svg PUBLIC "-//W3C//DTD SVG 1.1//EN" "http://www.w3.org/Graphics/SVG/1.1/DTD/svg11.dtd">
<!-- Creator: CorelDRAW X7 -->
<svg xmlns="http://www.w3.org/2000/svg" xml:space="preserve" width="120px" height="120px" version="1.1" style="shape-rendering:geometricPrecision; text-rendering:geometricPrecision; image-rendering:optimizeQuality; fill-rule:evenodd; clip-rule:evenodd"
viewBox="0 0 120 120"
 xmlns:xlink="http://www.w3.org/1999/xlink">
 <defs>
  <style type="text/css">
   <![CDATA[
    .fil0 {fill:black}
    .fil1 {fill:#E6E6E6}
   ]]>
  </style>
 </defs>
 <g id="Layer_x0020_1">
  <metadata id="CorelCorpID_0Corel-Layer"/>
  <rect class="fil0" width="120" height="120"/>
  <g id="_3140460001392">
   <path class="fil1" d="M102 38c-5,0 -5,5 -5,7l-5 24 -40 0c-1,-3 -2,-7 -3,-11l-9 -32c-1,-5 -5,-4 -10,-4 -3,0 -11,0 -13,1 -3,2 -2,7 3,7 4,0 10,0 14,0 2,9 4,18 6,26 2,4 3,9 4,13 2,7 1,8 9,8l41 0c3,0 4,-1 5,-3 1,-4 2,-9 3,-14 1,-4 2,-9 2,-14 2,-7 1,-7 -2,-8z"/>
   <path class="fil1" d="M55 83c-9,3 -6,17 3,15 10,-2 7,-17 -3,-15z"/>
   <path class="fil1" d="M86 83c-10,3 -7,17 3,15 9,-2 6,-17 -3,-15z"/>
  </g>
 </g>
</svg>
