<?xml version="1.0" encoding="UTF-8"?>
<!DOCTYPE svg PUBLIC "-//W3C//DTD SVG 1.1//EN" "http://www.w3.org/Graphics/SVG/1.1/DTD/svg11.dtd">
<!-- Creator: CorelDRAW X7 -->
<svg xmlns="http://www.w3.org/2000/svg" xml:space="preserve" width="600px" height="120px" version="1.1" style="shape-rendering:geometricPrecision; text-rendering:geometricPrecision; image-rendering:optimizeQuality; fill-rule:evenodd; clip-rule:evenodd"
viewBox="0 0 600 120"
 xmlns:xlink="http://www.w3.org/1999/xlink">
 <defs>
  <style type="text/css">
   <![CDATA[
    .fil0 {fill:black}
   ]]>
  </style>
 </defs>
 <g id="Layer_x0020_1">
  <metadata id="CorelCorpID_0Corel-Layer"/>
  <g id="_2359376669536">
   <path class="fil0" d="M96 105c0,-2 -1,-3 -2,-3 0,0 -1,-1 -1,-1l-4 0 -29 -70 -5 0 -27 70 -8 0 0 4 22 0c0,-2 -1,-3 -2,-3 -1,0 -1,-1 -1,-1l-7 0 10 -23 25 0 9 23 -8 0 0 4 28 0zm-30 -31l-23 0 11 -29 12 29zm66 31l18 0c0,-2 0,-3 -1,-3 -1,0 -1,0 -1,0l-7 0 0 -77 -22 0 0 3 12 0 0 29c-4,-4 -10,-6 -16,-6 -9,0 -16,4 -20,11 -3,5 -5,11 -5,18 0,10 3,17 10,22 3,3 7,4 12,4 9,0 15,-5 19,-14l1 13zm-30 -27c0,-11 3,-19 9,-22 1,-1 4,-2 6,-2 6,0 10,3 12,10 1,3 2,7 2,12 0,10 -2,18 -7,22 -3,2 -6,3 -9,3 -6,0 -10,-4 -12,-12 -1,-3 -1,-7 -1,-11zm89 28c6,0 9,-3 10,-9 0,-1 0,-2 1,-4l-4 0c0,6 -2,9 -4,9 -2,0 -3,-2 -4,-6l0 -26c0,-13 -6,-19 -20,-19 -9,0 -16,2 -19,7 -1,1 -1,2 -1,4 0,2 1,4 4,4 0,1 1,1 1,1 2,0 4,-2 5,-4 1,-4 2,-5 2,-6 2,-2 4,-3 7,-3 7,0 11,5 11,13l0 8c-20,0 -31,4 -33,14 0,1 0,2 0,3 0,6 2,10 8,13 2,0 5,1 7,1 6,0 11,-2 15,-6 1,-2 2,-3 3,-5 1,7 5,11 11,11zm-24 -5c-6,0 -9,-3 -9,-9 0,-1 0,-1 0,-2 0,-6 3,-9 9,-11 3,0 7,-1 13,-1l0 10c-1,6 -4,10 -9,12 -1,1 -3,1 -4,1zm52 1l-5 0 0 -27c1,-8 3,-13 7,-16 2,-2 4,-2 7,-2 4,0 6,2 8,6 0,2 1,4 1,7l0 24c0,4 -1,6 -3,7 -1,0 -3,1 -5,1l0 3 26 0c0,-2 -1,-3 -2,-3 0,0 -1,0 -1,0l-5 0 0 -31 0 -1c1,-6 4,-10 8,-13 2,0 3,-1 5,-1 4,0 7,2 8,7 1,2 1,4 1,7l0 24c0,4 0,6 -2,7 -1,0 -3,1 -5,1l0 3 27 0c0,-2 -1,-3 -2,-3 0,0 -1,0 -1,0l-6 0 0 -31c0,-8 -3,-14 -8,-18 -3,-1 -5,-2 -8,-2 -7,0 -13,3 -16,10 -1,1 -1,2 -2,3 -1,-6 -5,-10 -9,-12 -2,-1 -3,-1 -5,-1 -6,0 -11,3 -15,8 -1,2 -2,3 -3,5l0 -12 -19 0 0 3 9 0 0 39c0,4 -1,6 -4,7 -1,0 -3,1 -5,1l0 3 27 0c0,-2 0,-3 -2,-3 0,0 0,0 -1,0z"/>
   <path class="fil0" d="M323 58c-4,1 -7,3 -9,5 -3,2 -5,4 -7,7 -2,2 -3,5 -4,8 -1,2 -2,5 -2,8 0,3 1,6 2,9 1,2 2,4 4,5 2,2 4,3 6,4 2,1 4,1 7,1 2,0 5,0 8,-1 3,-1 5,-2 8,-3 2,-2 4,-3 7,-5 2,-2 4,-4 6,-6l-26 -31 0 -1zm50 51l-6 0c-1,0 -2,0 -2,0 -1,0 -2,-1 -2,-2l-11 -13c-2,2 -5,5 -7,7 -3,2 -5,3 -8,5 -3,1 -6,2 -9,3 -3,1 -6,1 -10,1 -3,0 -6,0 -9,-1 -3,-1 -5,-3 -7,-5 -3,-2 -4,-4 -6,-7 -1,-3 -1,-6 -1,-10 0,-4 0,-7 2,-11 1,-3 3,-6 5,-9 2,-3 5,-5 8,-7 3,-2 7,-4 10,-5 -2,-4 -4,-7 -5,-10 -1,-3 -2,-6 -2,-9 0,-4 1,-8 2,-11 2,-3 3,-6 6,-8 2,-2 5,-4 8,-5 3,-2 6,-2 10,-2 3,0 6,0 8,1 3,1 5,2 6,4 2,2 3,4 4,6 1,3 2,5 2,8l-4 1c-1,0 -2,0 -2,-2 0,-1 0,-2 -1,-4 -1,-2 -1,-3 -2,-5 -2,-1 -3,-2 -5,-3 -2,-1 -4,-1 -6,-1 -3,0 -6,0 -8,1 -2,1 -4,3 -6,4 -2,2 -3,4 -4,7 -1,2 -1,5 -1,8 0,3 0,6 2,10 1,3 3,6 6,10l25 30c2,-4 4,-7 5,-11 2,-3 3,-7 4,-10 0,-1 0,-2 1,-2l5 0c-1,5 -2,9 -4,14 -2,4 -5,9 -8,13l17 20z"/>
   <path class="fil0" d="M454 103c0,-2 0,-3 -2,-3 0,0 0,0 -1,0l-4 0 -28 -71 -6 0 -27 71 -8 0 0 3 22 0c0,-2 0,-3 -2,-3 0,0 0,0 -1,0l-6 0 9 -24 26 0 9 24 -8 0 0 3 27 0zm-30 -30l-23 0 12 -30 11 30zm36 4c0,-16 5,-24 15,-24 10,0 16,8 16,23 0,17 -5,25 -15,25 -11,0 -16,-8 -16,-24zm16 -28c-8,0 -15,3 -21,9 -4,5 -6,11 -6,18 0,10 3,18 10,23 5,4 10,5 16,5 8,0 15,-2 20,-8 5,-5 7,-12 7,-19 0,-10 -3,-18 -11,-23 -4,-3 -9,-5 -15,-5zm49 51l-5 0 0 -18 6 -6 17 27 17 0c0,-2 -1,-3 -2,-3 0,0 -1,0 -1,0l-4 0 -20 -31 11 -10c3,-3 5,-5 7,-5 0,0 1,0 2,0 2,0 3,-1 3,-2 0,0 0,-1 0,-1l-21 0 0 3 9 0 -24 23 0 -54 -20 0 0 3 9 0 0 67c0,4 -1,6 -3,7 -2,0 -4,0 -6,0l0 3 29 0c0,-2 -1,-3 -2,-3 -1,0 -1,0 -2,0zm52 0l-6 0 0 -49 -19 0 0 3 9 0 0 39c0,4 -1,6 -4,7 -1,0 -3,0 -5,0l0 3 28 0c0,-2 0,-3 -2,-3 0,0 0,0 -1,0zm-4 -67c0,-3 -2,-5 -4,-6 -1,-1 -2,-1 -3,-1 -3,0 -6,1 -7,4 0,1 -1,2 -1,3 0,3 2,6 5,7 1,0 2,1 3,1 3,0 5,-2 6,-5 0,-1 1,-2 1,-3z"/>
  </g>
 </g>
</svg>
